<svg width="34" height="34" viewBox="0 0 34 34" fill="none" xmlns="http://www.w3.org/2000/svg">
<path d="M20.9924 8.00008C19.7169 5.79088 16.892 5.03396 14.6828 6.30944C12.4736 7.58492 11.7167 10.4098 12.9922 12.619L20.6904 25.9527C21.9659 28.1619 24.7908 28.9188 27 27.6433C29.2092 26.3678 29.9661 23.5429 28.6906 21.3338L20.9924 8.00008Z" stroke="white" stroke-width="2" stroke-miterlimit="10"/>
<path d="M5.3095 21.3422C4.03402 23.5514 4.79095 26.3762 7.00014 27.6517C9.20934 28.9272 12.0342 28.1703 13.3097 25.9611L21.0079 12.6274C22.2834 10.4182 21.5265 7.59332 19.3173 6.31784C17.1081 5.04236 14.2832 5.79929 13.0077 8.00848L5.3095 21.3422Z" stroke="white" stroke-width="2" stroke-miterlimit="10"/>
<path d="M13.9312 23.6356C13.9312 21.0847 11.8632 19.0167 9.31228 19.0167C6.76132 19.0167 4.69336 21.0847 4.69336 23.6356C4.69336 26.1866 6.76132 28.2546 9.31228 28.2546C11.8632 28.2546 13.9312 26.1866 13.9312 23.6356Z" stroke="white" stroke-width="2" stroke-miterlimit="10"/>
</svg>
