<svg width="34" height="34" viewBox="0 0 34 34" fill="none" xmlns="http://www.w3.org/2000/svg">
<path d="M13.5575 17.6516L9.23669 21.9724" stroke="white" stroke-width="2" stroke-miterlimit="10" stroke-linecap="round" stroke-linejoin="round"/>
<path d="M9.27917 17.6941L13.6 22.0149" stroke="white" stroke-width="2" stroke-miterlimit="10" stroke-linecap="round" stroke-linejoin="round"/>
<path d="M19.1675 19.8334H19.1816" stroke="white" stroke-width="2.5" stroke-miterlimit="10" stroke-linecap="round" stroke-linejoin="round"/>
<path d="M24.7491 19.8334H24.7633" stroke="white" stroke-width="2.5" stroke-miterlimit="10" stroke-linecap="round" stroke-linejoin="round"/>
<path d="M21.9584 22.6383V22.61" stroke="white" stroke-width="2.5" stroke-miterlimit="10" stroke-linecap="round" stroke-linejoin="round"/>
<path d="M21.9584 17.0567V17.0283" stroke="white" stroke-width="2.5" stroke-miterlimit="10" stroke-linecap="round" stroke-linejoin="round"/>
<path d="M12.75 31.1667H21.25C28.3334 31.1667 31.1667 28.3333 31.1667 21.25V18.4167C31.1667 11.3333 28.3334 8.5 21.25 8.5H12.75C5.66671 8.5 2.83337 11.3333 2.83337 18.4167V21.25C2.83337 28.3333 5.66671 31.1667 12.75 31.1667Z" stroke="white" stroke-width="2" stroke-linecap="round" stroke-linejoin="round"/>
<path d="M18.4308 2.83337L18.4166 4.26421C18.4024 5.04337 17.7791 5.66671 16.9999 5.66671H16.9574C16.1783 5.66671 15.5549 6.30421 15.5549 7.08337C15.5549 7.86254 16.1924 8.50004 16.9716 8.50004H18.3883" stroke="white" stroke-width="2" stroke-linecap="round" stroke-linejoin="round"/>
</svg>
