<svg width="34" height="34" viewBox="0 0 34 34" fill="none" xmlns="http://www.w3.org/2000/svg">
<path d="M5.13342 21.9048L5.36506 22.1365C5.36506 22.1365 6.36026 23.2174 7.82733 21.7761" stroke="white" stroke-linecap="round" stroke-linejoin="round"/>
<path d="M25.2433 4L24.5999 6.54806" stroke="white" stroke-width="1.5" stroke-linecap="round" stroke-linejoin="round"/>
<path d="M27.4996 8.48711L31 6.4967" stroke="white" stroke-width="1.5" stroke-linecap="round" stroke-linejoin="round"/>
<path d="M27.6884 11.876L30.1935 12.6481" stroke="white" stroke-width="1.5" stroke-linecap="round" stroke-linejoin="round"/>
<path d="M10.8987 22.6512L13.9615 28.0562C14.0818 28.243 14.163 28.4521 14.2003 28.6711C14.2377 28.8901 14.2303 29.1143 14.1788 29.3304C14.1272 29.5464 14.0325 29.7498 13.9003 29.9283C13.7681 30.1069 13.6011 30.2568 13.4095 30.3691C13.2178 30.4814 13.0055 30.5538 12.7851 30.5819C12.5648 30.6101 12.341 30.5933 12.1273 30.5327C11.9136 30.4722 11.7144 30.369 11.5415 30.2294C11.3687 30.0898 11.226 29.9168 11.1218 29.7206C10.2638 28.4337 8.09326 24.6931 8.09326 24.6931" stroke="white" stroke-width="1.5" stroke-linecap="round" stroke-linejoin="round"/>
<path d="M9.32019 15.5222L13.9874 23.4495L12.0398 24.6763" stroke="white" stroke-width="1.5" stroke-linecap="round" stroke-linejoin="round"/>
<path d="M19.0834 6.34212L25.4578 17.4094C25.4578 17.4094 26.4359 19.0138 24.1967 19.2797C21.9575 19.5457 12.8119 21.4589 12.8119 21.4589L7.82733 24.2815C7.82733 24.2815 4.9361 25.8343 3.49477 23.3034C3.40331 23.142 3.32027 22.9759 3.24598 22.8058C2.94137 22.0357 2.91896 21.1827 3.18273 20.3976C3.44651 19.6126 3.97946 18.9461 4.6873 18.5162L9.37161 15.6249L17.0329 5.91315C17.0329 5.91315 18.0196 4.66915 19.0834 6.34212Z" stroke="white" stroke-width="1.5" stroke-linecap="round" stroke-linejoin="round"/>
<path d="M17 7L24 19" stroke="white" stroke-width="1.5" stroke-linecap="round" stroke-linejoin="round"/>
<path d="M21.1853 9.99691L23.639 9.82532L24.8487 11.8071L23.4417 13.9091" stroke="white" stroke-width="1.5" stroke-linecap="round" stroke-linejoin="round"/>
<path d="M9.74908 21.2272C10.0428 21.2272 10.281 20.989 10.281 20.6953C10.281 20.4015 10.0428 20.1633 9.74908 20.1633C9.45531 20.1633 9.21716 20.4015 9.21716 20.6953C9.21716 20.989 9.45531 21.2272 9.74908 21.2272Z" fill="white"/>
</svg>
