<svg width="34" height="34" viewBox="0 0 34 34" fill="none" xmlns="http://www.w3.org/2000/svg">
<path d="M23.47 25.0807V27.4172C23.5058 27.901 23.4357 28.3868 23.2645 28.8407C23.0933 29.2947 22.8252 29.7058 22.4787 30.0454C22.1323 30.385 21.716 30.645 21.2588 30.8071C20.8015 30.9693 20.3144 31.0298 19.8315 30.9844H8.6484C8.16507 31.0314 7.6773 30.972 7.21937 30.8104C6.76144 30.6488 6.34444 30.3889 5.99768 30.0489C5.65091 29.7089 5.38279 29.2972 5.21215 28.8425C5.0415 28.3879 4.97246 27.9014 5.0099 27.4172V6.56716C5.0099 4.56955 6.03546 3 8.6484 3H19.8315C21.722 3 23.47 3.8472 23.47 6.56716V8.39533" stroke="white" stroke-width="2" stroke-linecap="round" stroke-linejoin="round"/>
<path d="M22.1055 10.7318L17.0491 23.1455" stroke="white" stroke-width="2" stroke-miterlimit="10" stroke-linecap="round"/>
<path d="M14.5788 13.1487L10.2269 16.9388L14.5788 20.613" stroke="white" stroke-width="2" stroke-linecap="round" stroke-linejoin="round"/>
<path d="M24.5668 13.1487L28.9188 16.9388L24.5668 20.613" stroke="white" stroke-width="2" stroke-linecap="round" stroke-linejoin="round"/>
<path d="M14.24 27.8988C14.8754 27.8988 15.3904 27.3838 15.3904 26.7484C15.3904 26.1131 14.8754 25.598 14.24 25.598C13.6047 25.598 13.0896 26.1131 13.0896 26.7484C13.0896 27.3838 13.6047 27.8988 14.24 27.8988Z" fill="white"/>
<path d="M15.4974 6.05884H13.0271C12.4213 6.05884 11.9302 6.54995 11.9302 7.15575V7.25383C11.9302 7.85964 12.4213 8.35075 13.0271 8.35075H15.4974C16.1032 8.35075 16.5943 7.85964 16.5943 7.25383V7.15575C16.5943 6.54995 16.1032 6.05884 15.4974 6.05884Z" fill="white"/>
</svg>
