<svg width="34" height="34" viewBox="0 0 34 34" fill="none" xmlns="http://www.w3.org/2000/svg">
<path d="M19.0098 26.8325C25.5909 26.8325 30.926 21.4974 30.926 14.9163C30.926 8.3351 25.5909 3 19.0098 3C12.4286 3 7.09351 8.3351 7.09351 14.9163C7.09351 21.4974 12.4286 26.8325 19.0098 26.8325Z" stroke="white" stroke-width="1.5" stroke-miterlimit="10"/>
<path d="M9.11886 21.5594L3.82855 26.0728C3.29359 26.6185 2.99583 27.3535 3.00004 28.1177C3.00426 28.8819 3.31013 29.6135 3.85108 30.1533C4.39203 30.6931 5.12429 30.9974 5.88849 31C6.6527 31.0025 7.387 30.7032 7.9316 30.1671L12.3838 24.8244" stroke="white" stroke-width="1.5" stroke-miterlimit="10"/>
<path d="M5.16425 24.9291L9.04904 28.8226" stroke="white" stroke-width="1.5" stroke-miterlimit="10"/>
<path d="M26.9258 16.8008C26.9258 16.9102 26.9049 17.0143 26.8633 17.1133C26.8216 17.2096 26.7643 17.2943 26.6914 17.3672C26.6185 17.4401 26.5326 17.4974 26.4336 17.5391C26.3372 17.5807 26.2344 17.6016 26.125 17.6016H22.9258C22.8164 17.6016 22.7122 17.5807 22.6133 17.5391C22.5169 17.4974 22.4323 17.4401 22.3594 17.3672C22.2865 17.2943 22.2292 17.2096 22.1875 17.1133C22.1458 17.0143 22.125 16.9102 22.125 16.8008V12.8008C22.125 12.6914 22.1458 12.5885 22.1875 12.4922C22.2292 12.3932 22.2865 12.3086 22.3594 12.2383C22.4323 12.1654 22.5169 12.1081 22.6133 12.0664C22.7122 12.0221 22.8164 12 22.9258 12H26.125C26.2344 12 26.3372 12.0221 26.4336 12.0664C26.5326 12.1081 26.6185 12.1654 26.6914 12.2383C26.7643 12.3086 26.8216 12.3932 26.8633 12.4922C26.9049 12.5885 26.9258 12.6914 26.9258 12.8008V16.8008ZM22.9258 12.8008V16.8008H26.125V12.8008H22.9258Z" fill="white"/>
<path d="M16.8438 12H20.9258V12.8008H17.6445V14.4023H20.4453V15.2031H17.6445V16.8008H20.9258V17.6016H16.8438V12Z" fill="white"/>
<path d="M11.8789 15.2031C11.7695 15.2031 11.6654 15.1823 11.5664 15.1406C11.4701 15.0964 11.3854 15.0391 11.3125 14.9688C11.2396 14.8958 11.1823 14.8112 11.1406 14.7148C11.099 14.6159 11.0781 14.5117 11.0781 14.4023V12.8008C11.0781 12.6914 11.099 12.5885 11.1406 12.4922C11.1823 12.3932 11.2396 12.3086 11.3125 12.2383C11.3854 12.1654 11.4701 12.1081 11.5664 12.0664C11.6654 12.0221 11.7695 12 11.8789 12H14.5977C14.707 12 14.8099 12.0221 14.9062 12.0664C15.0052 12.1081 15.0911 12.1654 15.1641 12.2383C15.237 12.3086 15.2943 12.3932 15.3359 12.4922C15.3776 12.5885 15.3984 12.6914 15.3984 12.8008V13.5234H14.5977V12.8008H11.8789V14.4023H14.5977C14.707 14.4023 14.8099 14.4232 14.9062 14.4648C15.0052 14.5065 15.0911 14.5638 15.1641 14.6367C15.237 14.7096 15.2943 14.7956 15.3359 14.8945C15.3776 14.9909 15.3984 15.0938 15.3984 15.2031V16.8008C15.3984 16.9102 15.3776 17.0143 15.3359 17.1133C15.2943 17.2096 15.237 17.2943 15.1641 17.3672C15.0911 17.4401 15.0052 17.4974 14.9062 17.5391C14.8099 17.5807 14.707 17.6016 14.5977 17.6016H11.8008C11.6914 17.6016 11.5872 17.5807 11.4883 17.5391C11.3919 17.4974 11.3073 17.4401 11.2344 17.3672C11.1615 17.2943 11.1042 17.2096 11.0625 17.1133C11.0208 17.0143 11 16.9102 11 16.8008V16.082H11.8008V16.8008H14.5977V15.2031H11.8789Z" fill="white"/>
</svg>
