<svg width="34" height="34" viewBox="0 0 34 34" fill="none" xmlns="http://www.w3.org/2000/svg">
<path d="M2.83334 2.83337H5.29835C6.82835 2.83337 8.03251 4.15087 7.90501 5.66671L6.72918 19.7767C6.53084 22.0859 8.35833 24.0692 10.6817 24.0692H25.7692C27.8092 24.0692 29.5942 22.3975 29.75 20.3717L30.515 9.74671C30.685 7.39505 28.9 5.48253 26.5342 5.48253H8.24502" stroke="white" stroke-width="2" stroke-miterlimit="10" stroke-linecap="round" stroke-linejoin="round"/>
<path d="M23.0208 31.1667C23.9988 31.1667 24.7917 30.3738 24.7917 29.3958C24.7917 28.4178 23.9988 27.625 23.0208 27.625C22.0428 27.625 21.25 28.4178 21.25 29.3958C21.25 30.3738 22.0428 31.1667 23.0208 31.1667Z" stroke="white" stroke-width="2" stroke-miterlimit="10" stroke-linecap="round" stroke-linejoin="round"/>
<path d="M11.6875 31.1667C12.6655 31.1667 13.4583 30.3738 13.4583 29.3958C13.4583 28.4178 12.6655 27.625 11.6875 27.625C10.7095 27.625 9.91666 28.4178 9.91666 29.3958C9.91666 30.3738 10.7095 31.1667 11.6875 31.1667Z" stroke="white" stroke-width="2" stroke-miterlimit="10" stroke-linecap="round" stroke-linejoin="round"/>
<path d="M12.75 11.3334H29.75" stroke="white" stroke-width="2" stroke-miterlimit="10" stroke-linecap="round" stroke-linejoin="round"/>
</svg>
